Coordinates
version=1
nRows=35
nColumns=18
inDegrees=yes

Units are S.I. units (second, meters, Newtons, ...)
Angles are in degrees.

endheader
time	pelvis_tilt	pelvis_list	pelvis_rotation	pelvis_tx	pelvis_ty	pelvis_tz	hip_flexion_r	hip_adduction_r	hip_rotation_r	knee_angle_r	ankle_angle_r	hip_flexion_l	hip_adduction_l	hip_rotation_l	knee_angle_l	ankle_angle_l	lumbar_extension
      3.04000000	      1.50641045	     -1.79377034	     -0.12576526	      1.94471418	      0.91900154	     -0.28820545	     -3.41511027	      2.88570100	      0.00000000	    -50.86243081	     -9.01095246	     13.56351577	      1.31370992	      0.00000000	    -16.09299567	      5.66417312	     -5.00000214
      3.05000000	      1.39086326	     -1.64225426	     -0.37654767	      1.95438648	      0.91968467	     -0.28960602	     -1.26956964	      2.51477354	      0.00000000	    -53.73945586	     -8.79862536	     12.60343802	      1.57486074	      0.00000000	    -15.36352059	      6.12405331	     -5.00000214
      3.06000000	      1.25805203	     -1.53517251	     -0.62162190	      1.96383454	      0.92030385	     -0.29076152	      0.87146845	      2.23505651	      0.00000000	    -56.33027900	     -7.74909484	     11.84118729	      1.77606652	      0.00000000	    -14.94688017	      6.73008749	     -5.00000214
      3.07000000	      1.16537783	     -1.43067186	     -0.85891669	      1.97341326	      0.92108060	     -0.29186494	      2.87659585	      1.97744606	      0.00000000	    -58.52047862	     -6.59227364	     11.04278903	      1.97469941	      0.00000000	    -14.53425262	      7.21550590	     -5.00000214
      3.08000000	      1.10971600	     -1.33586363	     -1.07093778	      1.98309307	      0.92205128	     -0.29291697	      4.76071657	      1.75647063	      0.00000000	    -60.31718021	     -5.83736108	     10.17497261	      2.16742201	      0.00000000	    -14.05719185	      7.54019905	     -5.00000214
      3.09000000	      1.05500051	     -1.28411013	     -1.20101833	      1.99270951	      0.92296058	     -0.29379843	      6.55270453	      1.65550073	      0.00000000	    -61.79949504	     -3.87918637	      9.40425314	      2.30605214	      0.00000000	    -13.78380011	      8.04869119	     -5.00000214
      3.10000000	      1.01964076	     -1.23348503	     -1.29196660	      2.00236684	      0.92397879	     -0.29467123	      8.24879677	      1.57923877	      0.00000000	    -62.90587263	     -2.54173436	      8.52880284	      2.44937368	      0.00000000	    -13.34387574	      8.36466251	     -5.00000214
      3.11000000	      0.99824695	     -1.19461143	     -1.34584309	      2.01202048	      0.92495568	     -0.29548923	      9.85503729	      1.54473317	      0.00000000	    -63.68804725	     -1.01588715	      7.59458886	      2.57877589	      0.00000000	    -12.82961606	      8.65044853	     -5.00000214
      3.12000000	      0.98063881	     -1.16026198	     -1.36752670	      2.02166109	      0.92588999	     -0.29626844	     11.37910977	      1.53718027	      0.00000000	    -64.13988330	      0.40951339	      6.60249110	      2.69844649	      0.00000000	    -12.19153241	      8.87462133	     -5.00000214
      3.13000000	      0.96153197	     -1.10997810	     -1.39777415	      2.03120274	      0.92668138	     -0.29702885	     12.87778677	      1.51564521	      0.00000000	    -64.33641673	      1.71308641	      5.58928756	      2.83601515	      0.00000000	    -11.50417201	      9.06483104	     -5.00000214
      3.14000000	      0.94121071	     -1.08192381	     -1.38019189	      2.04068673	      0.92739117	     -0.29768613	     14.27545896	      1.56210228	      0.00000000	    -64.17773943	      3.22526678	      4.57280933	      2.93299251	      0.00000000	    -10.77734336	      9.22089965	     -5.00000214
      3.15000000	      0.90464347	     -1.01462918	     -1.41081258	      2.04997349	      0.92789725	     -0.29836721	     15.69441054	      1.54430456	      0.00000000	    -63.81098178	      4.26334062	      3.60604939	      3.07675796	      0.00000000	    -10.08904306	      9.40124932	     -5.00000214
      3.16000000	      0.89184954	     -0.99525710	     -1.41400518	      2.05943204	      0.92832327	     -0.29883042	     16.96320231	      1.62981214	      0.00000000	    -63.12849265	      5.72670551	      2.57855336	      3.14958351	      0.00000000	     -9.34540658	      9.53777822	     -5.00000214
      3.17000000	      0.88075712	     -0.95070073	     -1.45153414	      2.06884267	      0.92859312	     -0.29929286	     18.18400875	      1.66619587	      0.00000000	    -62.21066514	      6.76952872	      1.56177045	      3.24785490	      0.00000000	     -8.62254746	      9.69432414	     -5.00000214
      3.18000000	      0.86187092	     -0.90625944	     -1.46882601	      2.07821851	      0.92874661	     -0.29976263	     19.35061347	      1.69955415	      0.00000000	    -61.04694945	      7.59543116	      0.54586420	      3.35077049	      0.00000000	     -7.86957704	      9.84043106	     -5.00000214
      3.19000000	      0.83989704	     -0.86494415	     -1.47895916	      2.08760689	      0.92876196	     -0.30014441	     20.44428759	      1.73454708	      0.00000000	    -59.65309320	      8.30265029	     -0.47627651	      3.44291737	      0.00000000	     -7.08244045	      9.93304633	     -5.00000214
      3.20000000	      0.80706519	     -0.85653468	     -1.47097348	      2.09692872	      0.92868090	     -0.30032823	     21.45801833	      1.81911351	      0.00000000	    -57.98830074	      8.61508670	     -1.46204502	      3.48230835	      0.00000000	     -6.32996654	     10.15423329	     -5.00000214
      3.21000000	      0.80262859	     -0.80883736	     -1.46061744	      2.10638479	      0.92851748	     -0.30065884	     22.32853876	      1.81115921	      0.00000000	    -56.09327715	      8.98812513	     -2.54602780	      3.58028164	      0.00000000	     -5.44980824	     10.29969219	     -5.00000214
      3.22000000	      0.76760979	     -0.79244925	     -1.42742976	      2.11567502	      0.92824838	     -0.30079985	     23.13585537	      1.84494888	      0.00000000	    -53.95765613	      9.22971223	     -3.52733735	      3.62571989	      0.00000000	     -4.70449497	     10.41199770	     -5.00000214
      3.23000000	      0.74833870	     -0.74339549	     -1.45654058	      2.12506827	      0.92785040	     -0.30096189	     23.84760064	      1.81409646	      0.00000000	    -51.69484072	      9.50216626	     -4.67797843	      3.72282409	      0.00000000	     -3.65088563	     10.39171205	     -5.00000214
      3.24000000	      0.69438427	     -0.72416154	     -1.44237786	      2.13428840	      0.92737726	     -0.30099404	     24.46296537	      1.81503419	      0.00000000	    -49.16122683	      9.58385764	     -5.64540212	      3.76958508	      0.00000000	     -2.90209302	     10.43434737	     -5.00000214
      3.25000000	      0.63029214	     -0.70013726	     -1.41605641	      2.14345933	      0.92679167	     -0.30102059	     24.97655397	      1.79648495	      0.00000000	    -46.43313335	      9.56030265	     -6.56552409	      3.81843455	      0.00000000	     -2.22924117	     10.49179260	     -5.00000214
      3.26000000	      0.57818705	     -0.66393964	     -1.41466229	      2.15273199	      0.92612559	     -0.30102676	     25.35002308	      1.75152883	      0.00000000	    -43.49571118	      9.40455330	     -7.51755254	      3.88419961	      0.00000000	     -1.54320114	     10.52774094	     -5.00000214
      3.27000000	      0.53187267	     -0.61762504	     -1.41313078	      2.16207065	      0.92538533	     -0.30101607	     25.57030576	      1.69072115	      0.00000000	    -40.31634781	      9.15810363	     -8.42439054	      3.95958798	      0.00000000	     -0.97882069	     10.56652488	     -5.00000214
      3.28000000	      0.50374447	     -0.57876045	     -1.46821956	      2.17157067	      0.92451401	     -0.30084262	     25.67428652	      1.65191259	      0.00000000	    -37.00027342	      8.45145154	     -9.50250391	      4.02240602	      0.00000000	     -0.13380526	     10.43808414	     -5.00000214
      3.29000000	      0.44780954	     -0.54033150	     -1.41735192	      2.18095858	      0.92356149	     -0.30070724	     25.64128539	      1.60165296	      0.00000000	    -33.41580891	      7.69328167	    -10.38088930	      4.05741011	      0.00000000	      0.39769707	     10.33717880	     -5.00000214
      3.30000000	      0.40043243	     -0.48905589	     -1.30849783	      2.19042446	      0.92250382	     -0.30063314	     25.46850890	      1.52200285	      0.00000000	    -29.67272855	      6.94003970	    -11.21298237	      4.09137153	      0.00000000	      0.81389030	     10.39597881	     -5.00000214
      3.31000000	      0.35463561	     -0.42139728	     -1.11022840	      2.19997347	      0.92133130	     -0.30065563	     25.18955118	      1.39711727	      0.00000000	    -25.85600496	      6.60576672	    -11.94621359	      4.11618734	      0.00000000	      1.02816411	     10.55066163	     -5.00000214
      3.32000000	      0.32165532	     -0.36482221	     -0.94626977	      2.20967400	      0.92011558	     -0.30051328	     24.82100931	      1.29779809	      0.00000000	    -21.97945907	      5.20238983	    -12.73726537	      4.12349522	      0.00000000	      1.32697650	     10.67622338	     -5.00000214
      3.33000000	      0.32586089	     -0.24822950	     -0.68661645	      2.21961633	      0.91883914	     -0.30070954	     24.34016878	      1.07769253	      0.00000000	    -18.19705402	      4.84070591	    -13.44837355	      4.18485188	      0.00000000	      1.35245706	     10.85114718	     -5.00000214
      3.34000000	      0.30328352	     -0.18501128	     -0.45811246	      2.22954866	      0.91758129	     -0.30057141	     23.81493127	      0.93917270	      0.00000000	    -14.40175432	      2.98911581	    -14.12052099	      4.15563990	      0.00000000	      1.38278131	     11.08287753	     -5.00000214
      3.35000000	      0.30833022	     -0.07559834	     -0.21326665	      2.23969579	      0.91629030	     -0.30060968	     23.23716012	      0.71896850	      0.00000000	    -10.86212227	      1.85192106	    -14.75127002	      4.17590854	      0.00000000	      1.24178354	     11.27504016	     -5.00000214
      3.36000000	      0.31960353	      0.04256308	      0.02464781	      2.24995846	      0.91501908	     -0.30062044	     22.63577878	      0.48298394	      0.00000000	     -7.59254250	      0.76641696	    -15.33272579	      4.19335211	      0.00000000	      0.97795289	     11.43504563	     -5.00000214
      3.37000000	      0.34199915	      0.16723740	      0.24341401	      2.26037470	      0.91378611	     -0.30060614	     22.03957784	      0.24029327	      0.00000000	     -4.69496806	     -0.07218098	    -15.90703265	      4.21231823	      0.00000000	      0.66305358	     11.57497645	     -5.00000214
      3.38000000	      0.37153772	      0.31427961	      0.43694424	      2.27089289	      0.91259340	     -0.30058741	     21.55351470	     -0.01369943	      0.00000000	     -2.39366839	     -0.19030029	    -16.43901277	      4.25122680	      0.00000000	      0.23142906	     11.61286846	     -5.00000214
